#N canvas -106 34 2646 1194 12;
#X obj 170 105 netreceive -u -b;
#X msg 150 66 listen 0;
#X msg 222 66 listen 3334;
#X obj 170 149 oscparse;
#X listbox 170 182 20 0 0 0 - - - 0;
#X obj 170 227 list trim;
#X obj 170 260 route mouseX mouseY oye;
#X obj 170 296 unpack s;
#X symbolatom 170 326 10 0 0 0 - - - 0;
#X obj 170 355 f;
#X floatatom 170 386 5 0 0 0 - - - 0;
#X obj 262 296 unpack s;
#X symbolatom 262 326 10 0 0 0 - - - 0;
#X obj 262 355 f;
#X floatatom 262 386 5 0 0 0 - - - 0;
#X obj 393 313 *~;
#X obj 432 312 vline~;
#X obj 393 371 *~;
#X floatatom 435 372 5 0 1 0 - - - 0;
#X obj 393 431 dac~;
#X obj 627 317 *~;
#X obj 666 316 vline~;
#X obj 627 375 *~;
#X floatatom 669 376 5 0 1 0 - - - 0;
#X obj 619 432 dac~;
#X obj 484 -5 tgl 19 0 empty empty empty 0 -10 0 12 #fcfcfc #000000 #000000 0 1;
#X obj 484 251 bng 19 250 50 0 empty empty empty 0 -10 0 12 #fcfcfc #000000 #000000;
#X obj 718 -5 tgl 19 0 empty empty empty 0 -10 0 12 #fcfcfc #000000 #000000 0 1;
#X obj 718 251 bng 19 250 50 0 empty empty empty 0 -10 0 12 #fcfcfc #000000 #000000;
#X obj 484 80 random 10;
#X floatatom 484 104 5 0 0 0 - - - 0;
#X floatatom 484 187 5 0 0 0 - - - 0;
#X obj 484 210 sel 1;
#X obj 859 317 *~;
#X obj 898 316 vline~;
#X obj 859 375 *~;
#X floatatom 901 376 5 0 1 0 - - - 0;
#X obj 851 432 dac~;
#X obj 950 -5 tgl 19 0 empty empty empty 0 -10 0 12 #fcfcfc #000000 #000000 0 1;
#X obj 950 251 bng 19 250 50 0 empty empty empty 0 -10 0 12 #fcfcfc #000000 #000000;
#X msg 950 288 1 1 0 \, 0 1 1;
#X obj 859 261 osc~ 6000;
#X obj 950 69 random 10;
#X floatatom 950 93 5 0 0 0 - - - 0;
#X obj 950 138 > 5;
#X floatatom 950 176 5 0 0 0 - - - 0;
#X obj 950 199 sel 1;
#X obj 950 26 metro 125;
#X obj 718 26 metro 250;
#X obj 484 149 > 2;
#X floatatom 262 475 5 0 0 0 - - - 0;
#X obj 262 428 * 20;
#X obj 170 427 * 2;
#X floatatom 170 476 5 0 0 0 - - - 0;
#X obj 393 257 osc~ 100;
#X obj 484 25 metro 500;
#X obj 718 78 random 10;
#X floatatom 718 102 5 0 0 0 - - - 0;
#X floatatom 718 185 5 0 0 0 - - - 0;
#X obj 718 208 sel 1;
#X obj 627 261 osc~ 1000;
#X obj 718 147 > 6;
#X msg 718 288 0.8 1 0 \, 0 0.1 1;
#X obj 786 208 del 125;
#X msg 484 284 1 0.8 0 \, 0 20 1;
#X connect 0 0 3 0;
#X connect 1 0 0 0;
#X connect 2 0 0 0;
#X connect 3 0 4 0;
#X connect 4 0 5 0;
#X connect 5 0 6 0;
#X connect 6 0 7 0;
#X connect 6 1 11 0;
#X connect 7 0 8 0;
#X connect 8 0 9 0;
#X connect 9 0 10 0;
#X connect 10 0 52 0;
#X connect 11 0 12 0;
#X connect 12 0 13 0;
#X connect 13 0 14 0;
#X connect 14 0 51 0;
#X connect 15 0 17 0;
#X connect 16 0 15 1;
#X connect 17 0 19 0;
#X connect 17 0 19 1;
#X connect 18 0 17 1;
#X connect 20 0 22 0;
#X connect 21 0 20 1;
#X connect 22 0 24 0;
#X connect 22 0 24 1;
#X connect 23 0 22 1;
#X connect 25 0 27 0;
#X connect 25 0 38 0;
#X connect 25 0 55 0;
#X connect 26 0 64 0;
#X connect 27 0 48 0;
#X connect 28 0 62 0;
#X connect 29 0 30 0;
#X connect 30 0 49 0;
#X connect 31 0 32 0;
#X connect 32 0 26 0;
#X connect 33 0 35 0;
#X connect 34 0 33 1;
#X connect 35 0 37 0;
#X connect 35 0 37 1;
#X connect 36 0 35 1;
#X connect 38 0 47 0;
#X connect 39 0 40 0;
#X connect 40 0 34 0;
#X connect 41 0 33 0;
#X connect 42 0 43 0;
#X connect 43 0 44 0;
#X connect 44 0 45 0;
#X connect 45 0 46 0;
#X connect 46 0 39 0;
#X connect 47 0 42 0;
#X connect 48 0 56 0;
#X connect 49 0 31 0;
#X connect 50 0 60 0;
#X connect 51 0 50 0;
#X connect 52 0 53 0;
#X connect 53 0 54 0;
#X connect 54 0 15 0;
#X connect 55 0 29 0;
#X connect 56 0 57 0;
#X connect 57 0 61 0;
#X connect 58 0 59 0;
#X connect 59 0 63 0;
#X connect 59 0 28 0;
#X connect 60 0 20 0;
#X connect 61 0 58 0;
#X connect 62 0 21 0;
#X connect 63 0 28 0;
#X connect 64 0 16 0;
